<svg width="500" height="500" viewBox="0 0 500 500" fill="none" xmlns="http://www.w3.org/2000/svg">
<path d="M381.999 383.5C380.999 351.5 360.499 341.5 349.499 339C342.833 372.667 329.499 440.1 329.499 440.5C357.999 443 382.999 415.5 381.999 383.5Z" fill="#7362AD"/>
<path d="M329.499 440.5C360.999 389 354.999 311.5 334.499 272.5L249.999 277V440.5H329.499Z" fill="#B2A4EE"/>
<path d="M313.999 383.5C327.499 394.5 310.999 421 308.999 440.5H265.999L269.999 403.5C280.499 389.5 300.499 372.5 313.999 383.5Z" fill="#7362AD"/>
<path d="M321.499 327.5C318.999 307.5 312.999 297.5 306.499 287C249.999 287 249.999 287 249.999 287V440.5H269.499C270.999 409.5 267.499 385 279.499 371.5C291.499 358 323.999 347.5 321.499 327.5Z" fill="#F6F4FC"/>
<path d="M118 383.5C119 351.5 139.5 341.5 150.5 339C157.166 372.667 170.5 440.1 170.5 440.5C142 443 117 415.5 118 383.5Z" fill="#7362AD"/>
<path d="M170.5 440.5C139 389 145 311.5 165.5 272.5L250 277V440.5H170.5Z" fill="#B2A4EE"/>
<path d="M186 383.5C172.5 394.5 189 421 191 440.5H234L230 403.5C219.5 389.5 199.5 372.5 186 383.5Z" fill="#7362AD"/>
<path d="M178.5 327.5C181 307.5 187 297.5 193.5 287C250 287 250 287 250 287V440.5H230.5C229 409.5 232.5 385 220.5 371.5C208.5 358 176 347.5 178.5 327.5Z" fill="#F6F4FC"/>
<path d="M334.5 272.5C336.913 277.09 339.124 282.213 341.098 287.765C338.23 289.138 336.004 290.321 334.5 291.131C328.243 294.5 289.095 313.158 274.579 324.807C272.3 334.857 261.445 340.631 251 340.631C240.533 340.631 227.583 334.832 225.34 324.743C210.76 313.091 171.745 294.494 165.5 291.131C163.996 290.321 161.77 289.138 158.901 287.765C160.875 282.213 163.087 277.09 165.5 272.5L250 277L334.5 272.5Z" fill="#7362AD" fill-opacity="0.25"/>
</svg>
