<svg width="500" height="500" viewBox="0 0 500 500" fill="none" xmlns="http://www.w3.org/2000/svg">
<path d="M333.5 271C343 265 361 258.5 388 256C384.5 251 373 246 370.5 244.5C381 240 404.5 231 409 213.5C386 199 374 174.5 368.5 165C384.5 131.5 390 68.0001 374.5 51.5001C359 49.5001 319.5 70.5001 289 102C273.316 98.0001 267.5 97.0001 250 97.0001V311.5L333.5 271Z" fill="#B2A4EE"/>
<circle cx="12.5" cy="12.5" r="12.5" transform="matrix(-1 0 0 1 314 200)" fill="#7362AD"/>
<path d="M374.5 51.5006C363.985 50.1439 342.426 59.3727 320.124 75.2828C346.321 79.7676 368.609 95.7001 381.654 117.751C385.634 89.8328 384.076 61.6956 374.5 51.5006Z" fill="#7362AD"/>
<path d="M348 100.5L363 75.0002C371 94.0002 364.5 129 352.5 144C348 138.5 338 130 333 126L348 100.5Z" fill="#E4DFF5"/>
<path d="M333 126L363 75.0002C340 79.0003 323 98.0003 312.5 112C320.5 117.5 326.5 121 333 126Z" fill="#F6F4FC"/>
<path d="M380.5 208C319.147 208 268.684 254.626 262.612 314.376C265.708 312.994 269.228 310.837 273 307.5C286 296 328 276 334.5 272.5C341 269 361 258.5 388 256C384.5 251 373 246 370.5 244.5C381 240 404.5 231 409 213.5C407.446 212.52 405.943 211.493 404.488 210.43C396.741 208.837 388.718 208 380.5 208Z" fill="#F6F4FC"/>
<path d="M166.5 271C157 265 139 258.5 112 256C115.5 251 127 246 129.5 244.5C119 240 95.5 231 91 213.5C114 199 126 174.5 131.5 165C115.5 131.5 110 68.0001 125.5 51.5001C141 49.5001 180.5 70.5001 211 102C226.684 98.0001 232.5 97.0001 250 97.0001V311.5L166.5 271Z" fill="#C4B9FB"/>
<circle cx="198.5" cy="212.5" r="12.5" fill="#7362AD"/>
<path d="M125.5 51.4999C136.014 50.1431 157.574 59.3722 179.876 75.2821C153.678 79.767 131.39 95.7008 118.345 117.752C114.365 89.8335 115.923 61.6949 125.5 51.4999Z" fill="#7362AD"/>
<path d="M152 100.5L137 75.0002C129 94.0002 135.5 129 147.5 144C152 138.5 162 130 167 126L152 100.5Z" fill="#E4DFF5"/>
<path d="M167 126L137 75.0002C160 79.0003 177 98.0003 187.5 112C179.5 117.5 173.5 121 167 126Z" fill="#F6F4FC"/>
<path d="M119.5 208C180.853 208 231.316 254.626 237.388 314.376C234.292 312.994 230.772 310.837 227 307.5C214 296 172 276 165.5 272.5C159 269 139 258.5 112 256C115.5 251 127 246 129.5 244.5C119 240 95.5 231 91 213.5C92.5541 212.52 94.0567 211.493 95.5117 210.43C103.259 208.837 111.282 208 119.5 208Z" fill="#F6F4FC"/>
<path d="M275 303C275.5 291 264 286 249.5 286C235 286 225 291 225 303C225 315 239.5 322 251 322C262.5 322 274.5 315 275 303Z" fill="#7362AD"/>
</svg>
