<svg width="500" height="500" viewBox="0 0 500 500" fill="none" xmlns="http://www.w3.org/2000/svg">
<path d="M170.5 440.5C63.5 449 35.5 314.5 71 270C89 303 135.5 307.5 150.5 325.5L170.5 440.5Z" fill="#B2A4EE"/>
<path d="M65.1065 369.5C51.5958 332.686 54.1162 291.164 71 270C83.3667 292.672 109.186 301.892 129 311.279C130.5 316 135.5 331 134 336.5C124 336 111.5 332 103 329C106 338.5 108.5 353.5 107 362C100 360 88 353.5 80 347.5C80 358.5 82 374.5 82.5 378.5C79.5 377.5 68 371.5 65.1065 369.5Z" fill="#F6F4FC"/>
</svg>
